<svg id="visual" viewBox="0 0 960 250" width="960" height="250" xmlns="http://www.w3.org/2000/svg" xmlns:xlink="http://www.w3.org/1999/xlink" version="1.1"><rect x="0" y="0" width="960" height="250" fill="#ff0066"></rect><path d="M0 126L10 132.2C20 138.3 40 150.7 60 154.8C80 159 100 155 120 152.8C140 150.7 160 150.3 180 146C200 141.7 220 133.3 240 134.2C260 135 280 145 300 149.8C320 154.7 340 154.3 360 155C380 155.7 400 157.3 420 155.8C440 154.3 460 149.7 480 144.2C500 138.7 520 132.3 540 130.2C560 128 580 130 600 134.8C620 139.7 640 147.3 660 151.3C680 155.3 700 155.7 720 154.2C740 152.7 760 149.3 780 146.8C800 144.3 820 142.7 840 140.7C860 138.7 880 136.3 900 138.8C920 141.3 940 148.7 950 152.3L960 156L960 0L950 0C940 0 920 0 900 0C880 0 860 0 840 0C820 0 800 0 780 0C760 0 740 0 720 0C700 0 680 0 660 0C640 0 620 0 600 0C580 0 560 0 540 0C520 0 500 0 480 0C460 0 440 0 420 0C400 0 380 0 360 0C340 0 320 0 300 0C280 0 260 0 240 0C220 0 200 0 180 0C160 0 140 0 120 0C100 0 80 0 60 0C40 0 20 0 10 0L0 0Z" fill="#ffff33"></path><path d="M0 108L10 107.2C20 106.3 40 104.7 60 107.3C80 110 100 117 120 120.2C140 123.3 160 122.7 180 122.8C200 123 220 124 240 123.8C260 123.7 280 122.3 300 122.8C320 123.3 340 125.7 360 126.7C380 127.7 400 127.3 420 120.2C440 113 460 99 480 92C500 85 520 85 540 85.2C560 85.3 580 85.7 600 91C620 96.3 640 106.7 660 113C680 119.3 700 121.7 720 122.2C740 122.7 760 121.3 780 116C800 110.7 820 101.3 840 101.3C860 101.3 880 110.7 900 108.7C920 106.7 940 93.3 950 86.7L960 80L960 0L950 0C940 0 920 0 900 0C880 0 860 0 840 0C820 0 800 0 780 0C760 0 740 0 720 0C700 0 680 0 660 0C640 0 620 0 600 0C580 0 560 0 540 0C520 0 500 0 480 0C460 0 440 0 420 0C400 0 380 0 360 0C340 0 320 0 300 0C280 0 260 0 240 0C220 0 200 0 180 0C160 0 140 0 120 0C100 0 80 0 60 0C40 0 20 0 10 0L0 0Z" fill="#3cc486"></path><path d="M0 77L10 79.7C20 82.3 40 87.7 60 89.8C80 92 100 91 120 89C140 87 160 84 180 82.3C200 80.7 220 80.3 240 78.7C260 77 280 74 300 72.2C320 70.3 340 69.7 360 71.5C380 73.3 400 77.7 420 78.8C440 80 460 78 480 73C500 68 520 60 540 61.3C560 62.7 580 73.3 600 79.2C620 85 640 86 660 80.2C680 74.3 700 61.7 720 58.7C740 55.7 760 62.3 780 63.7C800 65 820 61 840 61.5C860 62 880 67 900 66.2C920 65.3 940 58.7 950 55.3L960 52L960 0L950 0C940 0 920 0 900 0C880 0 860 0 840 0C820 0 800 0 780 0C760 0 740 0 720 0C700 0 680 0 660 0C640 0 620 0 600 0C580 0 560 0 540 0C520 0 500 0 480 0C460 0 440 0 420 0C400 0 380 0 360 0C340 0 320 0 300 0C280 0 260 0 240 0C220 0 200 0 180 0C160 0 140 0 120 0C100 0 80 0 60 0C40 0 20 0 10 0L0 0Z" fill="#00737f"></path><path d="M0 37L10 33.5C20 30 40 23 60 23C80 23 100 30 120 35.5C140 41 160 45 180 45C200 45 220 41 240 38.2C260 35.3 280 33.7 300 31C320 28.3 340 24.7 360 28.7C380 32.7 400 44.3 420 42.5C440 40.7 460 25.3 480 18.2C500 11 520 12 540 13C560 14 580 15 600 21.3C620 27.7 640 39.3 660 42.5C680 45.7 700 40.3 720 41.5C740 42.7 760 50.3 780 47.2C800 44 820 30 840 26C860 22 880 28 900 30.8C920 33.7 940 33.3 950 33.2L960 33L960 0L950 0C940 0 920 0 900 0C880 0 860 0 840 0C820 0 800 0 780 0C760 0 740 0 720 0C700 0 680 0 660 0C640 0 620 0 600 0C580 0 560 0 540 0C520 0 500 0 480 0C460 0 440 0 420 0C400 0 380 0 360 0C340 0 320 0 300 0C280 0 260 0 240 0C220 0 200 0 180 0C160 0 140 0 120 0C100 0 80 0 60 0C40 0 20 0 10 0L0 0Z" fill="#202731"></path></svg>