<svg id="visual" viewBox="0 0 960 250" width="960" height="250" xmlns="http://www.w3.org/2000/svg" xmlns:xlink="http://www.w3.org/1999/xlink" version="1.1"><rect x="0" y="0" width="960" height="250" fill="#202731"></rect><path d="M0 104L12.3 98.7C24.7 93.3 49.3 82.7 74 91.5C98.7 100.3 123.3 128.7 148 130.3C172.7 132 197.3 107 221.8 99.7C246.3 92.3 270.7 102.7 295.2 115.2C319.7 127.7 344.3 142.3 369 153.2C393.7 164 418.3 171 443 170.5C467.7 170 492.3 162 517 145.8C541.7 129.7 566.3 105.3 591 103C615.7 100.7 640.3 120.3 664.8 135.3C689.3 150.3 713.7 160.7 738.2 160C762.7 159.3 787.3 147.7 812 136.7C836.7 125.7 861.3 115.3 886 110C910.7 104.7 935.3 104.3 947.7 104.2L960 104L960 0L947.7 0C935.3 0 910.7 0 886 0C861.3 0 836.7 0 812 0C787.3 0 762.7 0 738.2 0C713.7 0 689.3 0 664.8 0C640.3 0 615.7 0 591 0C566.3 0 541.7 0 517 0C492.3 0 467.7 0 443 0C418.3 0 393.7 0 369 0C344.3 0 319.7 0 295.2 0C270.7 0 246.3 0 221.8 0C197.3 0 172.7 0 148 0C123.3 0 98.7 0 74 0C49.3 0 24.7 0 12.3 0L0 0Z" fill="#dd3f31" stroke-linecap="round" stroke-linejoin="miter"></path></svg>