<svg id="visual" viewBox="0 0 960 200" width="960" height="200" xmlns="http://www.w3.org/2000/svg" xmlns:xlink="http://www.w3.org/1999/xlink" version="1.1"><rect x="0" y="0" width="960" height="200" fill="#3c31dd"></rect><path d="M0 143L16 129.2C32 115.3 64 87.7 96 78.8C128 70 160 80 192 92.2C224 104.3 256 118.7 288 112.2C320 105.7 352 78.3 384 79.8C416 81.3 448 111.7 480 121.8C512 132 544 122 576 107.8C608 93.7 640 75.3 672 76.3C704 77.3 736 97.7 768 112.8C800 128 832 138 864 130.8C896 123.7 928 99.3 944 87.2L960 75L960 0L944 0C928 0 896 0 864 0C832 0 800 0 768 0C736 0 704 0 672 0C640 0 608 0 576 0C544 0 512 0 480 0C448 0 416 0 384 0C352 0 320 0 288 0C256 0 224 0 192 0C160 0 128 0 96 0C64 0 32 0 16 0L0 0Z" fill="#FF7101" stroke-linecap="round" stroke-linejoin="miter"></path></svg>