<svg id="visual" viewBox="0 0 960 250" width="960" height="250" xmlns="http://www.w3.org/2000/svg" xmlns:xlink="http://www.w3.org/1999/xlink" version="1.1"><rect x="0" y="0" width="960" height="250" fill="#0f0f10"></rect><path d="M0 93L5.2 115C10.3 137 20.7 181 31 172.5C41.3 164 51.7 103 62 97.2C72.3 91.3 82.7 140.7 93 157.5C103.3 174.3 113.7 158.7 124 146.3C134.3 134 144.7 125 155 135.5C165.3 146 175.7 176 186 165.5C196.3 155 206.7 104 217 90.7C227.3 77.3 237.7 101.7 248 101.2C258.3 100.7 268.7 75.3 279 89.8C289.3 104.3 299.7 158.7 310 169.5C320.3 180.3 330.7 147.7 341 139.5C351.3 131.3 361.7 147.7 372 158.8C382.3 170 392.7 176 403 151.3C413.3 126.7 423.7 71.3 434 63.8C444.3 56.3 454.7 96.7 464.8 98.7C475 100.7 485 64.3 495.2 65.5C505.3 66.7 515.7 105.3 526 122.8C536.3 140.3 546.7 136.7 557 146.2C567.3 155.7 577.7 178.3 588 158.8C598.3 139.3 608.7 77.7 619 45.8C629.3 14 639.7 12 650 42C660.3 72 670.7 134 681 154C691.3 174 701.7 152 712 137.2C722.3 122.3 732.7 114.7 743 124.5C753.3 134.3 763.7 161.7 774 153C784.3 144.3 794.7 99.7 805 83.5C815.3 67.3 825.7 79.7 836 92C846.3 104.3 856.7 116.7 867 118.3C877.3 120 887.7 111 898 93.3C908.3 75.7 918.7 49.3 929 52.5C939.3 55.7 949.7 88.3 954.8 104.7L960 121L960 0L954.8 0C949.7 0 939.3 0 929 0C918.7 0 908.3 0 898 0C887.7 0 877.3 0 867 0C856.7 0 846.3 0 836 0C825.7 0 815.3 0 805 0C794.7 0 784.3 0 774 0C763.7 0 753.3 0 743 0C732.7 0 722.3 0 712 0C701.7 0 691.3 0 681 0C670.7 0 660.3 0 650 0C639.7 0 629.3 0 619 0C608.7 0 598.3 0 588 0C577.7 0 567.3 0 557 0C546.7 0 536.3 0 526 0C515.7 0 505.3 0 495.2 0C485 0 475 0 464.8 0C454.7 0 444.3 0 434 0C423.7 0 413.3 0 403 0C392.7 0 382.3 0 372 0C361.7 0 351.3 0 341 0C330.7 0 320.3 0 310 0C299.7 0 289.3 0 279 0C268.7 0 258.3 0 248 0C237.7 0 227.3 0 217 0C206.7 0 196.3 0 186 0C175.7 0 165.3 0 155 0C144.7 0 134.3 0 124 0C113.7 0 103.3 0 93 0C82.7 0 72.3 0 62 0C51.7 0 41.3 0 31 0C20.7 0 10.3 0 5.2 0L0 0Z" fill="#dd3f31" stroke-linecap="round" stroke-linejoin="miter"></path></svg>