<svg id="visual" viewBox="0 0 960 250" width="960" height="250" xmlns="http://www.w3.org/2000/svg" xmlns:xlink="http://www.w3.org/1999/xlink" version="1.1"><rect x="0" y="0" width="960" height="250" fill="#0f0f10"></rect><path d="M0 228L5.2 208.7C10.3 189.3 20.7 150.7 31 135.3C41.3 120 51.7 128 62 122.2C72.3 116.3 82.7 96.7 93 87.2C103.3 77.7 113.7 78.3 124 101.7C134.3 125 144.7 171 155 164.7C165.3 158.3 175.7 99.7 186 96.8C196.3 94 206.7 147 217 165.3C227.3 183.7 237.7 167.3 248 166.8C258.3 166.3 268.7 181.7 279 190.7C289.3 199.7 299.7 202.3 310 175.3C320.3 148.3 330.7 91.7 341 88.2C351.3 84.7 361.7 134.3 372 149.8C382.3 165.3 392.7 146.7 403 132C413.3 117.3 423.7 106.7 434 114.8C444.3 123 454.7 150 464.8 159.5C475 169 485 161 495.2 160.2C505.3 159.3 515.7 165.7 526 141.3C536.3 117 546.7 62 557 38.2C567.3 14.3 577.7 21.7 588 32.3C598.3 43 608.7 57 619 59.5C629.3 62 639.7 53 650 46C660.3 39 670.7 34 681 34.2C691.3 34.3 701.7 39.7 712 64.8C722.3 90 732.7 135 743 165.5C753.3 196 763.7 212 774 183C784.3 154 794.7 80 805 52.8C815.3 25.7 825.7 45.3 836 53.5C846.3 61.7 856.7 58.3 867 62.2C877.3 66 887.7 77 898 101C908.3 125 918.7 162 929 180.5C939.3 199 949.7 199 954.8 199L960 199L960 251L954.8 251C949.7 251 939.3 251 929 251C918.7 251 908.3 251 898 251C887.7 251 877.3 251 867 251C856.7 251 846.3 251 836 251C825.7 251 815.3 251 805 251C794.7 251 784.3 251 774 251C763.7 251 753.3 251 743 251C732.7 251 722.3 251 712 251C701.7 251 691.3 251 681 251C670.7 251 660.3 251 650 251C639.7 251 629.3 251 619 251C608.7 251 598.3 251 588 251C577.7 251 567.3 251 557 251C546.7 251 536.3 251 526 251C515.7 251 505.3 251 495.2 251C485 251 475 251 464.8 251C454.7 251 444.3 251 434 251C423.7 251 413.3 251 403 251C392.7 251 382.3 251 372 251C361.7 251 351.3 251 341 251C330.7 251 320.3 251 310 251C299.7 251 289.3 251 279 251C268.7 251 258.3 251 248 251C237.7 251 227.3 251 217 251C206.7 251 196.3 251 186 251C175.7 251 165.3 251 155 251C144.7 251 134.3 251 124 251C113.7 251 103.3 251 93 251C82.7 251 72.3 251 62 251C51.7 251 41.3 251 31 251C20.7 251 10.3 251 5.2 251L0 251Z" fill="#F5F5F5" stroke-linecap="round" stroke-linejoin="miter"></path></svg>