<svg id="visual" viewBox="0 0 960 300" width="960" height="300" xmlns="http://www.w3.org/2000/svg" xmlns:xlink="http://www.w3.org/1999/xlink" version="1.1"><rect x="0" y="0" width="960" height="300" fill="#202731"></rect><path d="M0 109L12.3 116C24.7 123 49.3 137 74 131C98.7 125 123.3 99 148 98.2C172.7 97.3 197.3 121.7 221.8 129C246.3 136.3 270.7 126.7 295.2 115.2C319.7 103.7 344.3 90.3 369 91.3C393.7 92.3 418.3 107.7 443 124C467.7 140.3 492.3 157.7 517 161C541.7 164.3 566.3 153.7 591 138.8C615.7 124 640.3 105 664.8 101.5C689.3 98 713.7 110 738.2 122.8C762.7 135.7 787.3 149.3 812 143.3C836.7 137.3 861.3 111.7 886 96.8C910.7 82 935.3 78 947.7 76L960 74L960 0L947.7 0C935.3 0 910.7 0 886 0C861.3 0 836.7 0 812 0C787.3 0 762.7 0 738.2 0C713.7 0 689.3 0 664.8 0C640.3 0 615.7 0 591 0C566.3 0 541.7 0 517 0C492.3 0 467.7 0 443 0C418.3 0 393.7 0 369 0C344.3 0 319.7 0 295.2 0C270.7 0 246.3 0 221.8 0C197.3 0 172.7 0 148 0C123.3 0 98.7 0 74 0C49.3 0 24.7 0 12.3 0L0 0Z" fill="#F5F5F5" stroke-linecap="round" stroke-linejoin="miter"></path></svg>