<svg id="visual" viewBox="0 0 960 300" width="960" height="300" xmlns="http://www.w3.org/2000/svg" xmlns:xlink="http://www.w3.org/1999/xlink" version="1.1"><rect x="0" y="0" width="960" height="300" fill="#3c31dd"></rect><path d="M0 189L12.3 182C24.7 175 49.3 161 74 167C98.7 173 123.3 199 148 199.8C172.7 200.7 197.3 176.3 221.8 169C246.3 161.7 270.7 171.3 295.2 182.8C319.7 194.3 344.3 207.7 369 206.7C393.7 205.7 418.3 190.3 443 174C467.7 157.7 492.3 140.3 517 137C541.7 133.7 566.3 144.3 591 159.2C615.7 174 640.3 193 664.8 196.5C689.3 200 713.7 188 738.2 175.2C762.7 162.3 787.3 148.7 812 154.7C836.7 160.7 861.3 186.3 886 201.2C910.7 216 935.3 220 947.7 222L960 224L960 301L947.7 301C935.3 301 910.7 301 886 301C861.3 301 836.7 301 812 301C787.3 301 762.7 301 738.2 301C713.7 301 689.3 301 664.8 301C640.3 301 615.7 301 591 301C566.3 301 541.7 301 517 301C492.3 301 467.7 301 443 301C418.3 301 393.7 301 369 301C344.3 301 319.7 301 295.2 301C270.7 301 246.3 301 221.8 301C197.3 301 172.7 301 148 301C123.3 301 98.7 301 74 301C49.3 301 24.7 301 12.3 301L0 301Z" fill="#F5F5F5" stroke-linecap="round" stroke-linejoin="miter"></path></svg>